<svg xmlns="http://www.w3.org/2000/svg" viewBox="0 0 1080 1080"><defs><style>.cls-1{fill:#b3b3b3;}</style></defs><g id="_Camada_2" data-name="&lt;Camada&gt;"><path id="path2-8" class="cls-1" d="M936.26,759.15c-5.45,15.36-10.9,29.72-16.35,43.59a558.73,558.73,0,0,1-50.52,91.14Q829.27,951.09,804,972.63c-25.76,23.78-54,36.16-83.71,36.66-21.3,0-47.06-5.95-77.27-18.33s-58-18.33-83.22-18.33c-26.74,0-55,6-85.69,18.33s-55,18.82-73.8,19.32c-28.73,1-57-11.39-85.69-37.65q-27.5-23.77-68.35-81.72c-29.23-41.12-53.5-88.67-72.32-143.15-20.31-58.94-30.22-115.91-30.22-170.89,0-62.9,13.87-117.39,41.12-163a239.55,239.55,0,0,1,85.69-86.68,227.49,227.49,0,0,1,115.9-32.69c22.79,0,52.5,6.94,89.65,20.81s60.93,20.8,71.33,20.8c7.92,0,34.18-8.42,78.76-24.77,42.1-15.35,77.76-21.3,107-18.82q118.89,9.66,178.32,93.62c-70.83,43.09-106,103-105,180.29.5,59.94,22.29,110,65.38,149.59C890.69,734.88,912,748.75,936.26,759.15ZM737.14,69.67c.49,6.44,1,12.38,1,18.82,0,47.05-17.34,91.14-51.52,131.75C645,268.79,595,296.52,541,292.07c-.49-5.45-1-11.4-1-17.84,0-45.07,19.81-93.61,54.49-133.24,17.33-19.81,39.62-36.65,66.37-50,27.24-12.88,52.5-20.31,76.28-21.3Z"/></g></svg>